<svg width="61" height="72" viewBox="0 0 61 72" fill="none" xmlns="http://www.w3.org/2000/svg">
<path fill-rule="evenodd" clip-rule="evenodd" d="M26.3381 23.1115C26.1057 23.2539 25.9803 23.4993 25.9814 23.8095C25.9819 23.9444 26.044 24.4666 26.1195 24.9701C26.3236 26.3316 26.3979 27.7911 26.3602 29.7003C26.3127 32.1034 26.1012 33.8145 25.6131 35.7451C25.2635 37.128 24.9287 38.0195 24.2186 39.4597L23.596 40.7222L22.7274 41.0111C19.4254 42.1093 16.6321 43.7712 15.5598 45.2754C15.1292 45.8794 15.0019 46.2215 15.0001 46.7796C14.9986 47.1973 15.0204 47.3093 15.1577 47.5903C15.4436 48.1752 16.104 48.7128 16.7824 48.9127C17.1735 49.028 17.8557 49.0292 18.2925 48.9155C20.0195 48.4656 22.0233 46.3895 24.1233 42.8744C24.5829 42.1052 24.6085 42.0745 24.8502 42.003C25.4226 41.8335 26.8526 41.5777 28.1193 41.4182C28.8628 41.3245 29.752 41.2078 30.0953 41.1588C30.4445 41.1089 31.345 41.0554 32.1386 41.0373L33.5576 41.005L33.8097 41.2833C33.9483 41.4364 34.4208 41.9046 34.8595 42.3237C38.6222 45.9176 41.6259 46.9543 43.2988 45.2365C43.4855 45.0448 43.6997 44.7439 43.8102 44.5184C43.975 44.182 44.0003 44.0731 44 43.7014C43.9997 43.3552 43.9701 43.2089 43.8462 42.9428C43.6572 42.5364 43.1638 42.0078 42.6584 41.6702C41.1147 40.6391 38.0433 39.7981 34.8912 39.5433L34.2385 39.4906L33.7646 38.9865C31.4087 36.48 29.716 33.2546 28.565 29.0788C28.0983 27.3856 27.861 26.2279 27.6816 24.7676C27.5372 23.5928 27.4917 23.4232 27.2581 23.1885C27.0971 23.0267 27.0311 22.9998 26.795 23C26.6222 23.0001 26.4521 23.0416 26.3381 23.1115ZM28.1956 32.8667C29.0899 35.1295 30.2668 37.204 31.5833 38.8376C31.8419 39.1584 32.0534 39.4304 32.0534 39.4418C32.0534 39.4533 31.7226 39.4795 31.3182 39.5001C30.914 39.5206 30.1924 39.589 29.7149 39.6518C29.2374 39.7148 28.4253 39.8181 27.9103 39.8815C27.3952 39.945 26.6772 40.0474 26.3148 40.1092C25.9524 40.171 25.6392 40.2216 25.6189 40.2216C25.5986 40.2216 25.6813 40.0227 25.8026 39.7796C26.7275 37.9269 27.4029 35.4646 27.7219 32.7826C27.7759 32.3286 27.8261 31.9633 27.8335 31.9707C27.8408 31.9782 28.0038 32.3813 28.1956 32.8667ZM37.9683 41.5569C40.2813 42.0599 42.0592 42.8537 42.4178 43.5434C42.4886 43.6796 42.4886 43.7207 42.4178 43.857C41.8775 44.8963 40.3228 44.6424 38.278 43.181C37.5709 42.6756 35.9695 41.3185 35.9695 41.2246C35.9695 41.1911 37.3152 41.4148 37.9683 41.5569ZM22.2615 42.9446C21.4531 44.2142 20.647 45.25 19.8258 46.0745C18.5539 47.3515 17.5745 47.7447 16.8826 47.2561C16.7528 47.1644 16.6087 47.0218 16.5626 46.9391C16.4856 46.8012 16.4901 46.764 16.6183 46.4849C16.9647 45.7301 18.308 44.6831 20.0977 43.7728C20.6976 43.4677 22.2069 42.7987 22.3122 42.7912C22.3392 42.7893 22.3163 42.8584 22.2615 42.9446Z" fill="#263475"/>
<path d="M47.25 14.5V15.25H48H60.25V71.25H0.75V0.75H47.25V14.5ZM48.75 13.75V1.96006L59.3203 13.75H48.75Z" stroke="#263475" stroke-width="1.5"/>
</svg>
