<svg width="299" height="50" viewBox="0 0 299 50" fill="none" xmlns="http://www.w3.org/2000/svg">
<rect y="0.483398" width="53.387" height="49.5043" rx="8.17933" fill="white"/>
<path d="M69.3952 37.6751C69.3952 37.5496 69.48 37.4241 69.5366 37.2213C69.5931 37.4241 69.6402 37.5496 69.6874 37.6751L71.0914 41.1709H67.9912L69.3952 37.6751ZM66.8416 44.1066L67.5483 42.3394H71.5437L72.2505 44.1066H73.6168L70.2622 35.9272H68.811L65.4375 44.1066H66.8416Z" fill="#263475"/>
<path d="M79.5536 44.1066V40.5625H81.265L83.8572 44.1066H85.4268L82.3687 39.9059L85.2141 35.9272H83.6344L81.2447 39.3361H79.5536V35.9272H78.1562V44.1066H79.5536Z" fill="#263475"/>
<path d="M97.2418 45.9242V42.8356H96.1745V35.9272H94.808V42.8356H90.439V35.9272H89.0625V44.0768H95.995L95.985 45.9242H97.2418Z" fill="#263475"/>
<path d="M109.06 44.1066V35.9272H107.762L103.177 41.9048C103.177 41.6248 103.177 41.3061 103.177 41.0067V35.9272H101.789V44.1066H103.096L107.682 38.1193C107.682 38.3994 107.682 38.7181 107.682 39.0078V44.1066H109.06Z" fill="#263475"/>
<path d="M120.494 40.0117C120.469 40.5503 120.286 41.0697 119.968 41.5055C119.651 41.9412 119.212 42.2742 118.706 42.4631C118.201 42.6521 117.651 42.6886 117.125 42.5682C116.599 42.4479 116.12 42.1759 115.747 41.786C115.374 41.3962 115.124 40.9056 115.027 40.3751C114.931 39.8445 114.993 39.2974 115.205 38.8015C115.417 38.3056 115.769 37.8828 116.22 37.5854C116.67 37.2881 117.197 37.1292 117.737 37.1287C118.114 37.1143 118.49 37.1802 118.84 37.3218C119.189 37.4633 119.505 37.6775 119.765 37.95C120.026 38.2226 120.226 38.5473 120.351 38.9027C120.477 39.2581 120.526 39.6361 120.494 40.0117ZM113.602 40.0117C113.6 40.8183 113.837 41.6073 114.283 42.2794C114.73 42.9515 115.365 43.4766 116.109 43.7886C116.854 44.1005 117.674 44.1854 118.467 44.0325C119.259 43.8795 119.989 43.4956 120.564 42.9292C121.138 42.3627 121.532 41.639 121.696 40.8492C121.86 40.0594 121.786 39.2389 121.483 38.491C121.181 37.7431 120.664 37.1013 119.998 36.6465C119.331 36.1916 118.544 35.9441 117.737 35.935C117.191 35.9004 116.644 35.9819 116.132 36.1741C115.619 36.3663 115.154 36.665 114.765 37.0502C114.377 37.4355 114.075 37.8987 113.879 38.4092C113.683 38.9197 113.598 39.4659 113.629 40.0117" fill="#263475"/>
<path d="M132.209 35.9272V39.394H127.718V35.9272H126.328V44.1066H127.718V40.6205H132.209V44.1066H133.599V35.9272H132.209Z" fill="#263475"/>
<path d="M139.047 35.9272V44.1066H144.5V42.8898H140.322V40.5915H144.093V39.3747H140.322V37.144H144.435V35.9272H139.047Z" fill="#263475"/>
<path d="M154.067 38.6055C154.067 39.7905 153.109 40.0699 152.017 40.0699H150.369V37.1604H152.017C153.138 37.1604 154.067 37.4398 154.067 38.6248V38.6055ZM149.047 35.9465V44.1066H150.369V41.2838H151.95C153.866 41.2838 155.409 40.6768 155.409 38.6055C155.409 36.5342 153.866 35.9272 151.95 35.9272L149.047 35.9465Z" fill="#263475"/>
<path d="M165.844 35.9272V39.394H161.343V35.9272H159.953V44.1066H161.343V40.6205H165.844V44.1066H167.224V35.9272H165.844Z" fill="#263475"/>
<path d="M179.425 40.4137C179.407 41.0127 179.214 41.5932 178.869 42.0832C178.524 42.5733 178.042 42.9513 177.484 43.1704C176.926 43.3895 176.316 43.4401 175.73 43.316C175.143 43.1918 174.606 42.8982 174.185 42.4717C173.764 42.0453 173.477 41.5046 173.361 40.9168C173.244 40.329 173.303 39.7199 173.529 39.1651C173.756 38.6102 174.14 38.134 174.635 37.7956C175.129 37.4571 175.713 37.2712 176.312 37.2609C176.73 37.2383 177.149 37.3047 177.539 37.4557C177.93 37.6067 178.284 37.8389 178.578 38.1369C178.873 38.4349 179.1 38.792 179.246 39.1845C179.392 39.5769 179.453 39.9959 179.425 40.4137ZM171.77 40.4137C171.758 41.3142 172.014 42.198 172.505 42.9527C172.997 43.7074 173.702 44.2989 174.531 44.6519C175.36 45.005 176.275 45.1037 177.16 44.9355C178.045 44.7673 178.86 44.3397 179.502 43.7072C180.143 43.0747 180.582 42.2659 180.762 41.3835C180.942 40.5011 180.856 39.585 180.514 38.7518C180.172 37.9186 179.59 37.2058 178.842 36.7041C178.094 36.2025 177.213 35.9346 176.312 35.9345C175.712 35.8996 175.111 35.9911 174.548 36.203C173.985 36.415 173.473 36.7426 173.045 37.1648C172.617 37.587 172.282 38.0944 172.062 38.654C171.843 39.2136 171.743 39.8131 171.77 40.4137Z" fill="#263475"/>
<path d="M185.398 35.9272V44.1066H190.851V42.8898H186.665V40.5915H190.445V39.3747H186.665V37.144H190.777V35.9272H185.398Z" fill="#263475"/>
<path d="M208.511 40.4137C208.503 41.0274 208.314 41.625 207.967 42.1314C207.62 42.6378 207.131 43.0303 206.561 43.2596C205.992 43.4889 205.367 43.5447 204.766 43.42C204.165 43.2954 203.614 42.9958 203.183 42.559C202.751 42.1222 202.459 41.5677 202.342 40.9652C202.225 40.3626 202.289 39.739 202.526 39.1728C202.763 38.6065 203.162 38.1228 203.673 37.7827C204.184 37.4425 204.784 37.261 205.398 37.2609C205.816 37.2383 206.235 37.3047 206.625 37.4557C207.016 37.6067 207.37 37.8389 207.664 38.1369C207.959 38.4349 208.186 38.792 208.332 39.1845C208.478 39.5769 208.539 39.9959 208.511 40.4137ZM200.856 40.4137C200.844 41.3142 201.1 42.198 201.591 42.9527C202.083 43.7074 202.788 44.2989 203.617 44.6519C204.446 45.005 205.361 45.1037 206.246 44.9355C207.131 44.7673 207.946 44.3397 208.587 43.7072C209.229 43.0747 209.668 42.2659 209.848 41.3835C210.028 40.5011 209.942 39.585 209.6 38.7518C209.258 37.9186 208.676 37.2058 207.928 36.7041C207.179 36.2025 206.299 35.9346 205.398 35.9345C204.798 35.8996 204.197 35.9911 203.634 36.203C203.071 36.415 202.559 36.7426 202.131 37.1648C201.703 37.587 201.368 38.0944 201.148 38.654C200.929 39.2136 200.829 39.8131 200.856 40.4137Z" fill="#263475"/>
<path d="M215.758 42.8898V40.3211H217.752C218.607 40.3211 219.48 40.4853 219.48 41.6151C219.48 42.745 218.616 42.8898 217.752 42.8898H215.758ZM215.758 39.0947V37.1633H220.174V35.9272H214.477V44.1066H217.762C219.291 44.1066 220.838 43.6237 220.838 41.6151C220.838 39.6065 219.272 39.0947 217.743 39.0947H215.758Z" fill="#263475"/>
<path d="M237.197 45.9242V42.8356H236.125V35.9272H234.742V42.8356H231.455V35.9272H230.073V42.8356H226.766V35.9272H225.383V44.0768H235.935V45.9242H237.197Z" fill="#263475"/>
<path d="M240.836 35.9272V44.1066H247.198V42.8898H242.324V40.5915H246.723V39.3747H242.324V37.144H247.122V35.9272H240.836Z" fill="#263475"/>
<path d="M250.839 40.0727C250.831 40.618 250.948 41.1589 251.184 41.662C251.42 42.1651 251.769 42.6196 252.209 42.9973C252.65 43.375 253.173 43.6678 253.745 43.8576C254.318 44.0474 254.928 44.1302 255.538 44.1008C256.426 44.1054 257.305 43.9301 258.106 43.5879V42.3291C257.426 42.746 256.614 42.9583 255.788 42.9352C255.339 42.9674 254.886 42.9161 254.46 42.7845C254.033 42.6529 253.642 42.4439 253.31 42.1706C252.979 41.8973 252.714 41.5657 252.533 41.1966C252.352 40.8275 252.259 40.4289 252.259 40.026C252.259 39.6231 252.352 39.2246 252.533 38.8555C252.714 38.4864 252.979 38.1548 253.31 37.8815C253.642 37.6082 254.033 37.3992 254.46 37.2676C254.886 37.136 255.339 37.0847 255.788 37.1168C256.593 37.1053 257.382 37.31 258.054 37.7043V36.4548C257.275 36.1106 256.417 35.9319 255.548 35.9326C254.927 35.9038 254.307 35.9907 253.726 36.1876C253.145 36.3846 252.616 36.6874 252.173 37.0768C251.73 37.4662 251.383 37.9337 251.153 38.4494C250.923 38.9652 250.816 39.518 250.839 40.0727Z" fill="#263475"/>
<path d="M261.742 35.9272V37.1537H264.298V44.1066H265.557V37.1537H268.104V35.9272H261.742Z" fill="#263475"/>
<path d="M278.019 38.2352C278.019 39.0271 277.332 39.3554 276.487 39.3554H274.109V37.115H276.223C277.279 37.115 277.966 37.4144 277.966 38.2352H278.019ZM278.315 41.7213C278.315 42.8608 277.258 42.9574 276.265 42.9574H274.057V40.4756H276.508C277.322 40.4756 278.357 40.6398 278.357 41.7213H278.315ZM272.641 35.9272V44.1066H276.508C277.924 44.1066 279.911 43.6913 279.911 41.8372C279.922 41.3618 279.753 40.8974 279.431 40.5238C279.109 40.1503 278.654 39.8908 278.146 39.79C278.566 39.6763 278.932 39.4379 279.186 39.1126C279.441 38.7872 279.569 38.3935 279.551 37.9938C279.551 36.6032 278.347 35.9272 276.487 35.9272H272.641Z" fill="#263475"/>
<path d="M291.206 40.4137C291.198 41.0274 291.009 41.625 290.662 42.1314C290.315 42.6378 289.826 43.0303 289.257 43.2596C288.687 43.4889 288.062 43.5447 287.461 43.42C286.86 43.2954 286.309 42.9958 285.878 42.559C285.447 42.1222 285.154 41.5677 285.037 40.9652C284.92 40.3626 284.984 39.739 285.221 39.1728C285.458 38.6065 285.857 38.1228 286.368 37.7827C286.879 37.4425 287.479 37.261 288.093 37.2609C288.512 37.2383 288.93 37.3047 289.321 37.4557C289.711 37.6067 290.065 37.8389 290.36 38.1369C290.654 38.4349 290.882 38.792 291.028 39.1845C291.174 39.5769 291.234 39.9959 291.206 40.4137ZM283.551 40.4137C283.539 41.3142 283.795 42.198 284.287 42.9527C284.778 43.7074 285.483 44.2989 286.312 44.6519C287.141 45.005 288.056 45.1037 288.941 44.9355C289.826 44.7673 290.641 44.3397 291.283 43.7072C291.924 43.0747 292.363 42.2659 292.543 41.3835C292.723 40.5011 292.637 39.585 292.295 38.7518C291.953 37.9186 291.371 37.2058 290.623 36.7041C289.875 36.2025 288.994 35.9346 288.093 35.9345C287.493 35.8996 286.892 35.9911 286.329 36.203C285.766 36.415 285.254 36.7426 284.826 37.1648C284.398 37.587 284.063 38.0944 283.844 38.654C283.624 39.2136 283.524 39.8131 283.551 40.4137Z" fill="#263475"/>
<path d="M65.4375 25.9303H69.5252V8.95008H78.4092L79.0697 5.02759H65.4375V25.9303Z" fill="#263475"/>
<path d="M85.8964 18.3847V5.02759H81.7969V25.9303H85.7087L94.9451 12.5216V25.9303H99.0644V5.02759H95.1327L85.8964 18.3847Z" fill="#263475"/>
<path d="M121.843 5.02759H106.65L106.073 18.3579C105.972 20.3574 105.648 21.5469 105.151 21.8443H103.602V29.1247L107.501 28.4479V25.7921H119.655V29.5656L123.595 28.9093V21.834H121.884L121.843 5.02759ZM117.528 8.97541V21.834H109.861C110.19 20.7006 110.37 19.5285 110.398 18.3476L110.874 8.97541H117.528Z" fill="#263475"/>
<path d="M136.45 5.02759H128.141V25.9303H132.271V19.2208H136.45C142.015 19.2208 144.499 18.1886 144.499 12.1397C144.499 6.09079 142.015 5.02759 136.45 5.02759ZM136.45 15.3499H132.223V8.95008H136.517C139.868 8.95008 140.301 8.95008 140.301 12.0468V12.2223C140.301 15.319 139.868 15.319 136.517 15.319" fill="#263475"/>
<path d="M158.587 5.02759C153.419 5.02759 148.141 6.26479 148.141 15.464C148.141 24.6632 153.379 25.9303 158.587 25.9303C163.795 25.9303 169.043 24.6831 169.043 15.4839C169.043 6.28475 163.765 5.04754 158.587 5.04754V5.02759ZM158.587 22.1589C154.788 22.1589 152.489 22.1589 152.489 15.4839C152.489 8.80904 154.788 8.81902 158.587 8.81902C162.386 8.81902 164.695 8.81902 164.695 15.4839C164.695 22.1489 162.266 22.1589 158.587 22.1589Z" fill="#263475"/>
<path d="M173.586 25.9303H177.831V9.00169H186.619V25.9303H190.853V5.02759H173.586V25.9303Z" fill="#263475"/>
<path d="M205.071 5.02759H196.305V25.9303H200.667V19.2208H205.071C210.948 19.2208 213.572 18.1886 213.572 12.1397C213.572 6.09079 210.948 5.02759 205.071 5.02759ZM205.132 15.3499H200.667V8.95008H205.132C208.671 8.95008 209.118 8.95008 209.118 12.0468V12.2223C209.118 15.319 208.671 15.319 205.132 15.319" fill="#263475"/>
<path d="M226.743 5.02759C221.575 5.02759 216.297 6.26479 216.297 15.464C216.297 24.6632 221.575 25.9303 226.743 25.9303C231.911 25.9303 237.2 24.6831 237.2 15.4839C237.2 6.28475 231.911 5.04754 226.743 5.04754V5.02759ZM226.743 22.1589C222.935 22.1589 220.645 22.1589 220.645 15.4839C220.645 8.80904 222.935 8.81902 226.743 8.81902C230.552 8.81902 232.851 8.81902 232.851 15.4839C232.851 22.1489 230.422 22.1589 226.743 22.1589Z" fill="#263475"/>
<path d="M256.515 8.95008L257.195 5.02759H240.836V25.9303H256.515L257.195 21.9769H245.136V17.1047H254.515V13.1822H245.136V8.95008H256.515Z" fill="#263475"/>
<path d="M275.137 19.706L271.893 15.4738C273.665 13.1822 275.447 10.8494 277.21 8.54751L279.913 5.02759H274.356L268.098 13.5332H265.094V5.02759H260.828V25.9303H265.094V17.4557H268.098L274.346 25.9303H279.913L278.471 24.0826C277.36 22.6478 276.228 21.182 275.107 19.706" fill="#263475"/>
<path d="M280.82 8.95008H287.594V25.9303H291.845V8.95008H298.301L298.997 5.02759H281.506L280.82 8.95008Z" fill="#263475"/>
<path d="M28.3071 3.87476H21.0781V5.00675H28.3071V3.87476Z" fill="#204A8B"/>
<path d="M15.6211 6.53414V2.42542H15.1515L11.9531 4.50973L15.1812 6.53414H15.6211Z" fill="#204A8B"/>
<path d="M18.8458 6.53414V2.42542H18.3702L15.1719 4.50973L18.4059 6.53414H18.8458Z" fill="#204A8B"/>
<path d="M22.0977 6.53414V2.42542H21.628L18.4297 4.50973L21.6578 6.53414H22.0977Z" fill="#204A8B"/>
<path d="M34.213 6.53414V2.42542H33.7374L30.5391 4.50973L33.7731 6.53414H34.213Z" fill="#204A8B"/>
<path d="M37.4396 6.53414V2.42542H36.964L33.7656 4.50973L36.9937 6.53414H37.4396Z" fill="#204A8B"/>
<path d="M40.6896 6.53414V2.42542H40.214L37.0156 4.50973L40.2497 6.53414H40.6896Z" fill="#204A8B"/>
<path d="M35.5438 23.1911L35.734 22.8257L36.1086 22.652L39.2772 21.2026L39.943 20.8911V19.4237V16.8782C37.0479 16.0817 34.4678 14.6562 29.2422 16.8782L29.3314 35.1938L35.5438 23.1911Z" fill="#174890"/>
<path d="M42.9014 8.12151H10.7157C10.2814 8.11914 9.85094 8.20318 9.44896 8.3688C9.04698 8.53442 8.68141 8.77836 8.37322 9.08663C8.06503 9.3949 7.82027 9.76144 7.653 10.1652C7.48572 10.569 7.39921 11.0021 7.39844 11.4396V35.5829H11.5599V14.5421C11.5599 14.5421 19.4488 10.9485 24.8349 14.4463V17.0457C23.3843 16.0155 17.1956 14.9374 13.7119 17.3512H13.7654L13.8427 32.0851V33.247L13.8843 34.9001L19.3536 23.2447L19.5379 22.8494L19.9363 22.6638L23.1287 21.2024L24.823 20.4237V35.5829H27.0226V14.5421C29.322 13.5578 31.7839 13.0154 34.2813 12.943C36.9744 12.9525 39.6427 13.4622 42.1524 14.4463V35.5829H46.2365V11.4396C46.2357 11.0026 46.1494 10.57 45.9825 10.1666C45.8156 9.76323 45.5714 9.39695 45.2638 9.08876C44.9563 8.78056 44.5914 8.5365 44.1901 8.37052C43.7888 8.20455 43.359 8.11993 42.9252 8.12151" fill="#174890"/>
<path d="M39.7744 37.7628V22.2982L36.6058 23.7477L29.3114 37.7628H23.6221V22.2982L20.4475 23.7477L13.8665 37.7628H7.39844V39.2003C7.39844 40.101 7.75357 40.9648 8.38571 41.6016C9.01785 42.2385 9.87522 42.5963 10.7692 42.5963C18.1231 42.5963 35.5 42.5963 42.8717 42.5963C43.3141 42.5963 43.7521 42.5084 44.1607 42.3377C44.5694 42.1669 44.9406 41.9167 45.2531 41.6013C45.5656 41.2858 45.8134 40.9114 45.9821 40.4994C46.1509 40.0874 46.2373 39.646 46.2365 39.2003V37.7628H39.7744Z" fill="#0580C4"/>
<path d="M44.9208 3.84497H39.6477V5.04285H44.9208C46.1033 5.04285 47.2374 5.51612 48.0736 6.35854C48.9097 7.20096 49.3795 8.34353 49.3795 9.5349V41.3566C49.3795 42.5485 48.9099 43.6917 48.0739 44.535C47.2379 45.3784 46.1039 45.853 44.9208 45.8546H8.56173C7.37915 45.8514 6.24599 45.3763 5.41034 44.5333C4.57468 43.6903 4.10461 42.548 4.10304 41.3566V9.5349C4.10462 8.34402 4.57487 7.20237 5.4107 6.36029C6.24652 5.51821 7.37969 5.04443 8.56173 5.04285H9.39401V3.84497H8.56173C7.06436 3.84656 5.62876 4.44654 4.56996 5.51326C3.51116 6.57999 2.91564 8.02632 2.91406 9.5349V41.3566C2.91406 42.8662 3.50889 44.314 4.56786 45.3821C5.62684 46.4501 7.06333 47.0509 8.56173 47.0525H44.9208C46.4192 47.0509 47.8557 46.4501 48.9146 45.3821C49.9736 44.314 50.5685 42.8662 50.5685 41.3566V9.5349C50.5669 8.02632 49.9714 6.57999 48.9125 5.51326C47.8537 4.44654 46.4182 3.84656 44.9208 3.84497Z" fill="#204A8B"/>
<path d="M28.626 3.84497H20.8203V5.04285H28.626V3.84497Z" fill="#204A8B"/>
</svg>
